<?xml version="1.0" encoding="utf-8"?>
<!-- Generator: Adobe Illustrator 28.2.0, SVG Export Plug-In . SVG Version: 6.00 Build 0)  -->
<svg version="1.1" id="Layer_1" xmlns="http://www.w3.org/2000/svg" xmlns:xlink="http://www.w3.org/1999/xlink" x="0px" y="0px"
	 viewBox="0 0 40 40" style="enable-background:new 0 0 40 40;" xml:space="preserve">
<style type="text/css">
	.st0{fill:#F0F0F0;stroke:#1E1E1E;stroke-width:0.9364;stroke-linecap:round;stroke-miterlimit:3.1212;}
	.st1{fill:#F0F0F0;stroke:#1E1E1E;stroke-width:0.9364;stroke-linejoin:round;stroke-miterlimit:3.1212;}
	.st2{opacity:0.15;enable-background:new    ;}
	.st3{fill:#FFFFFF;}
	.st4{fill:#F0F0F0;stroke:#1E1E1E;stroke-width:0.9764;stroke-linecap:round;stroke-linejoin:round;stroke-miterlimit:3.2548;}
	.st5{fill:#F0F0F0;stroke:#1E1E1E;stroke-width:0.9764;stroke-linejoin:round;stroke-miterlimit:3.2548;}
	.st6{fill:#F0F0F0;stroke:#1E1E1E;stroke-width:0.9309;stroke-linejoin:round;stroke-miterlimit:3.103;}
	.st7{fill:#F0F0F0;stroke:#1E1E1E;stroke-width:0.9401;stroke-linejoin:round;stroke-miterlimit:3.1336;}
	.st8{opacity:0.35;enable-background:new    ;}
	.st9{opacity:0.3;enable-background:new    ;}
	.st10{fill:#F0F0F0;stroke:#1E1E1E;stroke-width:1.011;stroke-miterlimit:3.3699;}
	.st11{fill:#F0F0F0;stroke:#1E1E1E;stroke-width:1.011;stroke-linejoin:round;stroke-miterlimit:3.3699;}
	.st12{fill:#F0F0F0;stroke:#1E1E1E;stroke-width:0.9844;stroke-linejoin:round;stroke-miterlimit:3.2812;}
	.st13{fill:#5F5955;stroke:#010101;stroke-width:0.9364;stroke-linecap:round;stroke-miterlimit:3.1212;}
	.st14{fill:#5F5955;stroke:#010101;stroke-width:0.9364;stroke-linejoin:round;stroke-miterlimit:3.1212;}
	.st15{opacity:0.18;enable-background:new    ;}
	.st16{opacity:0.25;fill:#FFFFFF;enable-background:new    ;}
	.st17{fill:#5F5955;stroke:#010101;stroke-width:0.9764;stroke-linecap:round;stroke-linejoin:round;stroke-miterlimit:3.2548;}
	.st18{fill:#5F5955;stroke:#010101;stroke-width:0.9764;stroke-linejoin:round;stroke-miterlimit:3.2548;}
	.st19{fill:#5F5955;stroke:#010101;stroke-width:0.9309;stroke-linejoin:round;stroke-miterlimit:10;}
	.st20{fill:#5F5955;stroke:#010101;stroke-width:0.9401;stroke-linejoin:round;stroke-miterlimit:3.1336;}
	.st21{opacity:0.4;enable-background:new    ;}
	.st22{fill:#5F5955;stroke:#010101;stroke-width:1.011;stroke-miterlimit:3.3699;}
	.st23{fill:#5F5955;stroke:#010101;stroke-width:1.011;stroke-linejoin:round;stroke-miterlimit:3.3699;}
	.st24{fill:#5F5955;stroke:#010101;stroke-width:0.9844;stroke-linejoin:round;stroke-miterlimit:3.2812;}
</style>
<g id="wk" transform="matrix(0.78030303,0,0,0.78030303,0.99250091,1.3663636)">
	<path id="path1542" class="st0" d="M27.7,15.2v-3.5h4.4V7.3h-4.9V3.4h-4.4v3.9h-4.9v4.4h4.4v3.5"/>
	<path id="rect1544" class="st1" d="M21.7,14.2h6.6c0.8,0,1.4,0.6,1.4,1.4l0,0c0,0.8-0.6,1.4-1.4,1.4h-6.6c-0.8,0-1.4-0.6-1.4-1.4
		l0,0C20.3,14.8,20.9,14.2,21.7,14.2z"/>
	<path id="path1546" class="st2" d="M26.4,14.2c0.7,0,1.3,0.6,1.3,1.4c0,0.8-0.6,1.4-1.3,1.4h2c0.7,0,1.3-0.6,1.3-1.4
		c0-0.8-0.6-1.4-1.3-1.4L26.4,14.2z"/>
	<path id="path1548" class="st3" d="M21.6,14.8c-0.4,0-0.7,0.3-0.7,0.8c0,0.4,0.3,0.8,0.7,0.8h0.9c-0.4,0-0.7-0.3-0.7-0.8
		c0-0.4,0.3-0.8,0.7-0.8L21.6,14.8z"/>
	<path id="path1550" class="st0" d="M33.6,37c0,0,7.8-13.3,6.6-15.9c-1.2-2.6-8.5-4.5-15.2-4.5s-14.1,1.9-15.2,4.5S16.4,37,16.4,37
		H33.6z"/>
	<path id="path1552" class="st2" d="M25,16.6c15.9,2.6,12.6,9.4,6.6,22.5l2-1.7c0,0,7.7-13.7,6.6-16.3C38.7,18.2,32.7,16.9,25,16.6z
		"/>
	<path id="path1554" class="st3" d="M23.8,17.3c-3.9-0.2-14.6,1.8-13.5,5c0.8,3.7,2.8,7.2,4.5,10.5C9.1,22.5,8.8,19,23.8,17.3z
		 M23.4,4l0,3.3h0.5l0-3.3H23.4z M18.5,7.9l0,3.2h0.8l0-3.2H18.5z M22.9,11.1l0,2.5h0.5l0-2.5H22.9z"/>
	<path id="path1556" class="st2" d="M26.2,3.4v3.9h1V3.4H26.2z M30.6,7.3v4.9h1.5V7.3H30.6z M26.2,11.7v2.5h1.5v-2.5H26.2z"/>
	<path id="path1558" class="st1" d="M25,36.5c0,0-9.1,0-11.7,1.6c-1.7,1.1-2.1,3.7-1.9,6.3h27.2c0.2-2.7-0.2-5.3-1.9-6.3
		C34.1,36.5,25,36.5,25,36.5L25,36.5z"/>
	<path id="path1560" class="st3" d="M25,37.1c0,0-8.7-0.1-11.6,1.7c-0.4,0.2-0.7,0.8-1,1.4c0.3-0.3,0.5-0.6,0.9-0.8
		c2.6-1.6,11.7-1.6,11.7-1.6s9.1,0,11.7,1.6c0.4,0.2,0.6,0.5,0.9,0.9c0-0.1-0.4-1.2-1.1-1.6C33.6,37.1,25,37.1,25,37.1L25,37.1z"/>
</g>
<g id="wq" transform="matrix(0.81370661,0,0,0.81370661,0.1573347,-0.13679755)">
	<path id="path1856" class="st4" d="M25,5.1c-1.8,0-3.3,1.3-3.3,3l0,0c0,1.6,1.5,3,3.3,3c0,0,0,0,0,0c1.8,0,3.3-1.3,3.3-3
		c0,0,0,0,0,0C28.3,6.4,26.8,5.1,25,5.1L25,5.1z"/>
	<path id="path1858" class="st3" d="M24.8,5.7c-0.4-0.2-3.7,0.8-2.2,3.6C22.4,7.8,23.1,6.1,24.8,5.7z"/>
	<path id="path1860" class="st4" d="M25,11c-6.5,0-9.6,5.9-9.6,10.4h19.3C34.6,16.9,31.5,11,25,11z"/>
	<path id="path1862" class="st3" d="M18.2,15c1-1.5,2.9-3.2,6.8-3.4C24.7,11.9,20.2,12.7,18.2,15z"/>
	<path id="path1864" class="st2" d="M24.8,5C24.8,5,24.9,5.2,24.8,5c2.5,1.1,2,3.8,0.8,5.5c7.4,3.8,2.2,8.7,2.2,8.7h2.7
		c1.8,1.3,7.2-2.7-3.8-8.7C30.3,7.4,26.8,4.9,24.8,5L24.8,5z"/>
	<path id="path1866" class="st4" d="M25,15.2c-2,0-2.3,2.6-4.1,2.9c-1.8,0.2-3.4-2.3-5.2-1.7c-1.5,0.5-0.8,2.6-1.8,3.2
		c-1.4,0.8-3.2-1.8-5.3-0.3c6.8,8.8,8.1,12.4,8,18.8h17c-0.1-6.4,1.1-10,8-18.8c-2.1-1.5-3.9,1.1-5.3,0.3c-1-0.6-0.3-2.7-1.8-3.2
		c-1.9-0.6-3.4,2-5.2,1.7C27.3,17.9,27,15.2,25,15.2L25,15.2z"/>
	<path id="path1868" class="st3" d="M9.9,19.3c-0.1,0-0.3,0.1-0.5,0.1c3.1,4.1,6.6,9.5,7.1,12.4c-1.4-4.9-3.3-9.6-6.1-12.5L9.9,19.3
		z"/>
	<path id="path1870" class="st2" d="M40,18.7C30.5,28.7,30,36.7,23,38h10.5c-0.1-6.4,1.1-10,8-18.8C41.5,19.2,40.8,18.5,40,18.7z"/>
	<path id="path1872" class="st3" d="M14.9,18.9c0.2-0.1,1.2-1.8,2-2C15.5,16.6,15.3,16.9,14.9,18.9z M22.5,17.9
		c1-0.8,1.6-2.7,3.2-1.8C25,15.8,23.5,17.1,22.5,17.9z M31.1,18.1c0.2,0.1,2.2-1.6,2.9-1.2C34,16.9,32.6,18,31.1,18.1z"/>
	<path id="path1874" class="st5" d="M25,36.5c0,0-9.1,0-11.7,1.6c-1.7,1.1-2.1,3.6-1.9,6.3h27.2c0.2-2.7-0.2-5.3-1.9-6.3
		C34.1,36.5,25,36.5,25,36.5L25,36.5z"/>
	<path id="path1876" class="st3" d="M25,37.1c0,0-8.7-0.1-11.6,1.7c-0.4,0.2-0.7,0.8-1,1.4c0.3-0.3,0.5-0.6,0.9-0.8
		c2.6-1.6,11.7-1.6,11.7-1.6s9.1,0,11.7,1.6c0.4,0.2,0.6,0.5,0.9,0.9c0-0.1-0.4-1.2-1.1-1.6C33.6,37.1,25,37.1,25,37.1z"/>
</g>
<g id="wb" transform="matrix(0.77573871,0,0,0.77573871,1.1065042,1.5417581)">
	<path id="path1449" class="st6" d="M25,5.8c-2.1,0-3.8,0.9-3.8,2l1.5,2.6C6.7,24.5,17,37.5,17,37.5h16c0,0,7-8.7,0.8-19.5l-3,4.8
		c-0.7,1.1-2,1.5-2.9,0.9c-0.9-0.6-1.1-1.9-0.5-3l3.9-6.3c-1.2-1.5-2.6-2.8-4-4.1l1.5-2.6C28.8,6.6,27.1,5.8,25,5.8L25,5.8z"/>
	<path id="path1451" class="st2" d="M25,5.8c-0.8,0-1.6,0.1-2.2,0.4c4.3,0.8,5,1.1,2.6,4.4l3.2,3.6C25,22.3,27,22,27,22
		s0.7-2.6,4.1-7.8c-1.2-1.4-2.5-2.7-3.8-3.9l1.5-2.6C28.8,6.6,27.1,5.8,25,5.8z M33.8,18l-1,1.5c3.7,8.4-4.1,18-4.1,18H33
		C33.2,37.5,40,28.7,33.8,18z"/>
	<path id="path1453" class="st3" d="M15.1,31.7c-0.2,0-3.4-9.8,5.8-18.8C18.6,14.9,13.8,26.1,15.1,31.7z M23.3,10.2l-1.5-2.6
		c0,0,0.2-0.7,1.8-1C21.9,7.9,22.6,8.2,23.3,10.2z"/>
	<path id="path1455" class="st6" d="M25,36.5c0,0-9.1,0-11.7,1.6c-1.7,1.1-2.1,3.7-1.9,6.3h27.2c0.2-2.7-0.2-5.3-1.9-6.3
		C34.1,36.5,25,36.5,25,36.5L25,36.5z"/>
	<path id="path1457" class="st3" d="M25,37.1c0,0-8.7-0.1-11.6,1.7c-0.4,0.2-0.7,0.8-1,1.4c0.3-0.3,0.5-0.6,0.9-0.8
		c2.6-1.6,11.7-1.6,11.7-1.6s9.1,0,11.7,1.6c0.4,0.2,0.6,0.5,0.9,0.9c0-0.1-0.4-1.2-1.1-1.6C33.6,37.1,25,37.1,25,37.1z"/>
</g>
<g id="wn" transform="matrix(0.7833885,0,0,0.78330159,1.0320312,1.1996996)">
	<path id="path1668" class="st7" d="M25.2,23c-0.2,7-11.8,5.2-11.5,18.1l22.9,0.1C34.4,34.8,46.2,16.1,24.6,9l0,0c0,0-2.4-2.6-6-2.8
		l0.2,3.5l-4.6,4.6c-2.6,3.1-8.7,8.4-7.8,9.6c3.1,5.3,6.3,4.4,6.3,4.4C17.1,23.8,18.7,26.2,25.2,23L25.2,23z"/>
	<path id="path1670" class="st8" d="M19.3,14.7c-0.8,0.9-0.7,1.1-0.8,2.1c0.8,0.1,1.5,0.2,2.2,0.1C23.1,15.6,20.8,13.5,19.3,14.7z"
		/>
	<path id="path1672" class="st9" d="M9.2,22.2c-0.9,0.4-1,1-1.1,1.5c0.7,0.4,1.9-0.1,2-1.4L9.2,22.2z"/>
	<path id="path1674" class="st3" d="M8.2,25.1c0,0,0.7,1.1-1.1-1.6c0.7-2,8.3-9.1,12.4-13.5l-0.2-3.1c0,0,1.1,1.7,1.2,3.5
		C16.2,14.7,8.4,21.2,7.8,23.6C7.8,24.2,8,24.6,8.2,25.1z"/>
	<path id="path1676" class="st2" d="M13.3,28.3c2-3.3,8.4-3.2,11.9-5.2c0.3,0.1,0.1,1.4,0.2,1.2c0.8-1.1,2.9-3.3,0.9-6.9
		c0.5,6-13.7,5.6-15.9,10.3C10.2,28.1,12.6,28.5,13.3,28.3z"/>
	<path id="path1678" class="st3" d="M25.8,23.8c-1,5.8-9.5,6.1-11,12.6C17.6,30,25.6,30.7,25.8,23.8z"/>
	<path id="path1680" class="st2" d="M18.6,6.2c0,0,3.1,0.7,4.9,4c20.5,7.2,7.6,27.9,5.8,31.1l7.2,0C34.6,38,46.1,15.6,24.6,9
		C22.8,7.9,21.8,6.4,18.6,6.2L18.6,6.2z"/>
	<path id="path1682" class="st7" d="M25,36.5c0,0-9.1,0-11.7,1.6c-1.7,1.1-2.1,3.6-1.9,6.3h27.2c0.2-2.7-0.2-5.3-1.9-6.3
		C34.1,36.5,25,36.5,25,36.5L25,36.5z"/>
	<path id="path1684" class="st3" d="M25,37.1c0,0-8.7-0.1-11.6,1.7c-0.4,0.2-0.7,0.8-1,1.4c0.3-0.3,0.5-0.6,0.9-0.8
		c2.6-1.6,11.7-1.6,11.7-1.6s9.1,0,11.7,1.6c0.4,0.2,0.6,0.5,0.9,0.9c0-0.1-0.4-1.2-1.1-1.6C33.6,37.1,25,37.1,25,37.1L25,37.1z"/>
</g>
<g id="wr" transform="matrix(0.84246687,0,0,0.84246687,-1.0662673,-1.4610091)">
	<path id="path1983" class="st10" d="M17.9,20.4c4.9-0.7,9.6-0.6,14.1,0 M14.2,9.7c-1.1,8.8,1.1,10.7,3.7,10.8l-3.3,18.2h20.8
		l-3.3-18.2c2.6-0.1,4.8-2,3.7-10.8l-3.6-0.5l-1.1,3.6L28,12.7l-0.5-3.8h-4.9L22,12.7l-3.1,0.1l-1.1-3.6L14.2,9.7z"/>
	<path id="path1985" class="st2" d="M17.9,20.4c6.8,0,13.1,0.4,14.9,16.6l2.3,0.4l-3.1-16.4C32,20.6,26,19.1,17.9,20.4z"/>
	<path id="path1987" class="st3" d="M14.8,10.2l2.3-0.3c-1.9,0.3-2.3,5.3-2.3,5.3C14.5,15.1,14.6,10.3,14.8,10.2z M25.3,9.5
		c-1.6,0-2.5,2.7-2.5,2.7l0.3-2.7L25.3,9.5z M32.7,9.8l0.9,0.1c-0.8,0.5-1.6,2-1.6,2L32.7,9.8z M18.5,21l2.6-0.3
		c-2.6,0.3-4.9,13.1-4.9,13.1L18.5,21z"/>
	<path id="path1989" class="st2" d="M34,9.4c0.4,6.4-2,10.6-8,10.5l4.8,0.6c7.5,0.3,5.1-10.8,5.1-10.8L34,9.4z"/>
	<path id="path1991" class="st11" d="M25,36.5c0,0-9.1,0-11.7,1.6c-1.7,1.1-2.1,3.7-1.9,6.3h27.2c0.2-2.7-0.2-5.3-1.9-6.3
		C34.1,36.5,25,36.5,25,36.5L25,36.5z"/>
	<path id="path1993" class="st3" d="M25,37.1c0,0-8.7-0.1-11.6,1.7c-0.4,0.2-0.7,0.8-1,1.4c0.3-0.3,0.5-0.6,0.9-0.8
		c2.6-1.6,11.7-1.6,11.7-1.6s9.1,0,11.7,1.6c0.4,0.2,0.6,0.5,0.9,0.9c0-0.1-0.4-1.2-1.1-1.6C33.6,37.1,25,37.1,25,37.1L25,37.1z"/>
</g>
<g id="wp" transform="matrix(0.82029849,0,0,0.82029849,-0.5120331,-0.50721691)">
	<path id="path1775" class="st12" d="M21.5,27.6h7 M19,17.5c0,1.7,0.7,3.4,2,4.6l-3.7,2.1l0.4,3.4h4.3c-0.8,3.6-2.8,7.3-5.1,8.6
		s-5.3,3.1-4.8,8.2h25.7c0.5-5.1-2.5-6.9-4.8-8.2c-2.3-1.3-4.3-5.1-5.1-8.6h4.3l0.4-3.4L29,22.1c1.3-1.2,2-2.9,2-4.6
		c0-3.4-2.6-5.9-6-5.9C21.6,11.6,19,14.1,19,17.5z"/>
	<path id="path1777" class="st2" d="M25,11.5c1.2-0.5,9.5,5.9,0.6,10.8l4.5,2.1l-0.6,3.1h2.7l0.4-3.4L29,22c1.3-1.2,2-2.6,2-4.3
		C30.5,12.3,25,11.5,25,11.5L25,11.5z M22,27.5c4.5,7.9,9.5,10,13.1,10L33,36.2c-2.1-1.5-4.7-4.9-5.1-8.6H22z"/>
	<path id="path1779" class="st3" d="M22,22.2l-1.6,2.3l-2.4,0L22,22.2L22,22.2z M24.3,12.3c-2.5,0.1-5.7,3.2-4.4,6.9l0.2,0.6
		C19.8,16.3,22.2,12.7,24.3,12.3z M17.9,37.6c-4,2.3-5.1,6.1-5.1,6.1c0,0-0.5-4.2,4-6.7c4.5-2.5,4.8-6.2,5.9-8.9
		C21.9,31.9,21.8,35.3,17.9,37.6z"/>
</g>
<g id="bk" transform="matrix(0.78030303,0,0,0.78030303,0.4879357,1.3663636)">
	<path id="path848" class="st13" d="M27.7,15.2v-3.5h4.4V7.3h-4.9V3.4h-4.4v3.9h-4.9v4.4h4.4v3.5"/>
	<path id="rect850" class="st14" d="M21.7,14.2h6.6c0.8,0,1.4,0.6,1.4,1.4l0,0c0,0.8-0.6,1.4-1.4,1.4h-6.6c-0.8,0-1.4-0.6-1.4-1.4
		l0,0C20.3,14.8,20.9,14.2,21.7,14.2z"/>
	<path id="path852" class="st15" d="M26.4,14.2c0.7,0,1.3,0.6,1.3,1.4c0,0.8-0.6,1.4-1.3,1.4h2c0.7,0,1.3-0.6,1.3-1.4
		c0-0.8-0.6-1.4-1.3-1.4L26.4,14.2z"/>
	<path id="path854" class="st16" d="M21.6,14.8c-0.4,0-0.7,0.3-0.7,0.8c0,0.4,0.3,0.8,0.7,0.8h0.9c-0.4,0-0.7-0.3-0.7-0.8
		c0-0.4,0.3-0.8,0.7-0.8L21.6,14.8z"/>
	<path id="path856" class="st13" d="M33.6,37c0,0,7.8-13.3,6.6-15.9c-1.2-2.6-8.5-4.5-15.2-4.5s-14.1,1.9-15.2,4.5S16.4,37,16.4,37
		H33.6z"/>
	<path id="path858" class="st15" d="M25,16.6c15.9,2.6,12.6,9.4,6.6,22.5l2-1.7c0,0,7.7-13.7,6.6-16.3C38.7,18.2,32.7,16.9,25,16.6z
		"/>
	<path id="path860" class="st16" d="M23.8,17.3c-3.9-0.2-14.6,1.8-13.5,5c0.8,3.7,2.8,7.2,4.5,10.5C9.1,22.5,8.8,19,23.8,17.3z
		 M23.4,4l0,3.3h0.5l0-3.3H23.4z M18.5,7.9l0,3.2h0.8l0-3.2H18.5z M22.9,11.1l0,2.5h0.5l0-2.5H22.9z"/>
	<path id="path862" class="st15" d="M26.2,3.4v3.9h1V3.4H26.2z M30.6,7.3v4.9h1.5V7.3H30.6z M26.2,11.7v2.5h1.5v-2.5H26.2z"/>
	<path id="path864" class="st14" d="M25,36.5c0,0-9.1,0-11.7,1.6c-1.7,1.1-2.1,3.7-1.9,6.3h27.2c0.2-2.7-0.2-5.3-1.9-6.3
		C34.1,36.5,25,36.5,25,36.5L25,36.5z"/>
	<path id="path866" class="st16" d="M25,37.1c0,0-8.7-0.1-11.6,1.7c-0.4,0.2-0.7,0.8-1,1.4c0.3-0.3,0.5-0.6,0.9-0.8
		c2.6-1.6,11.7-1.6,11.7-1.6s9.1,0,11.7,1.6c0.4,0.2,0.6,0.5,0.9,0.9c0-0.1-0.4-1.2-1.1-1.6C33.6,37.1,25,37.1,25,37.1L25,37.1z"/>
</g>
<g id="bq" transform="matrix(0.81370661,0,0,0.81370661,-0.34679558,-0.13679747)">
	<path id="path1232" class="st17" d="M25,5.1c-1.8,0-3.3,1.3-3.3,3l0,0c0,1.6,1.5,3,3.3,3c0,0,0,0,0,0c1.8,0,3.3-1.3,3.3-3
		c0,0,0,0,0,0C28.3,6.4,26.8,5.1,25,5.1L25,5.1z"/>
	<path id="path1234" class="st16" d="M24.8,5.7c-0.4-0.2-3.7,0.8-2.2,3.6C22.4,7.8,23.1,6.1,24.8,5.7z"/>
	<path id="path1236" class="st17" d="M25,11c-6.5,0-9.6,5.9-9.6,10.4h19.3C34.6,16.9,31.5,11,25,11z"/>
	<path id="path1238" class="st16" d="M18.2,15c1-1.5,2.9-3.2,6.8-3.4C24.7,11.9,20.2,12.7,18.2,15z"/>
	<path id="path1240" class="st15" d="M24.8,5C24.8,5,24.9,5.2,24.8,5c2.5,1.1,2,3.8,0.8,5.5c7.4,3.8,2.2,8.7,2.2,8.7h2.7
		c1.8,1.3,7.2-2.7-3.8-8.7C30.3,7.4,26.8,4.9,24.8,5L24.8,5z"/>
	<path id="path1242" class="st17" d="M25,15.2c-2,0-2.3,2.6-4.1,2.9c-1.8,0.2-3.4-2.3-5.2-1.7c-1.5,0.5-0.8,2.6-1.8,3.2
		c-1.4,0.8-3.2-1.8-5.3-0.3c6.8,8.8,8.1,12.4,8,18.8h17c-0.1-6.4,1.1-10,8-18.8c-2.1-1.5-3.9,1.1-5.3,0.3c-1-0.6-0.3-2.7-1.8-3.2
		c-1.9-0.6-3.4,1.9-5.2,1.7C27.3,17.9,27,15.2,25,15.2L25,15.2z"/>
	<path id="path1244" class="st16" d="M9.9,19.3c-0.1,0-0.3,0.1-0.5,0.1c3.1,4.1,6.6,9.5,7.1,12.4c-1.4-4.9-3.3-9.6-6.1-12.5
		L9.9,19.3z"/>
	<path id="path1246" class="st15" d="M40,18.7C30.5,28.7,30,36.7,23,38h10.5c-0.1-6.4,1.1-10,8-18.8C41.5,19.2,40.8,18.5,40,18.7z"
		/>
	<path id="path1248" class="st16" d="M14.9,18.9c0.2-0.1,1.2-1.8,2-1.9C15.5,16.6,15.3,16.9,14.9,18.9z M22.5,17.9
		c1-0.8,1.6-2.7,3.2-1.8C25,15.8,23.5,17.1,22.5,17.9z M31.1,18.1c0.2,0.1,2.2-1.6,2.9-1.2C34,16.9,32.6,18,31.1,18.1z"/>
	<path id="path1250" class="st18" d="M25,36.5c0,0-9.1,0-11.7,1.6c-1.7,1.1-2.1,3.7-1.9,6.3h27.2c0.2-2.7-0.2-5.3-1.9-6.3
		C34.1,36.5,25,36.5,25,36.5L25,36.5z"/>
	<path id="path1252" class="st16" d="M25,37.1c0,0-8.7-0.1-11.6,1.7c-0.4,0.2-0.7,0.8-1,1.4c0.3-0.3,0.5-0.6,0.9-0.8
		c2.6-1.6,11.7-1.6,11.7-1.6s9.1,0,11.7,1.6c0.4,0.2,0.6,0.5,0.9,0.9c0-0.1-0.4-1.2-1.1-1.6C33.6,37.1,25,37.1,25,37.1z"/>
</g>
<g id="bb" transform="matrix(0.20524753,0,0,0.20524753,-31.754618,-4.5982875)">
	<path id="path666" class="st19" d="M252.1,51.7c-8,0-14.4,3.3-14.4,7.4l5.7,10c-60.7,53.3-21.6,102.6-21.6,102.6h60.5
		c0,0,26.6-32.8,2.9-73.7L274,116.2c-2.5,4.1-7.4,5.6-10.9,3.4c-3.5-2.2-4.3-7.2-1.8-11.3l14.7-23.7c-4.6-5.5-9.7-10.7-15.1-15.4
		l5.7-10C266.5,55,260.1,51.7,252.1,51.7L252.1,51.7z"/>
	<path id="path668" class="st15" d="M252.1,51.7c-3.1,0-5.9,0.5-8.3,1.4c16.4,3.2,18.8,4.2,9.7,16.4L265.8,83
		c-13.8,31.1-6.1,30.2-6.1,30.2s2.6-10,15.5-29.4c-4.4-5.3-9.3-10.2-14.5-14.7l5.7-10C266.5,55,260.1,51.7,252.1,51.7z M285.3,98
		l-3.8,5.7c14.1,31.8-15.6,68-15.6,68h16.6C283,171.8,308.7,138.3,285.3,98z"/>
	<path id="path670" class="st16" d="M214.9,149.8c-0.8-0.1-12.9-37,21.7-70.9C227.9,86.1,209.7,128.7,214.9,149.8z M245.7,68.5
		l-5.6-9.8c0,0,0.9-2.7,6.7-4C240.3,59.8,243.1,61,245.7,68.5z"/>
	<path id="path672" class="st19" d="M252.1,167.7c0,0-34.5,0.2-44.2,6.1c-6.5,4-8.1,13.8-7.2,23.9h102.7c0.9-10.1-0.7-19.9-7.2-23.9
		C286.6,167.9,252.1,167.7,252.1,167.7L252.1,167.7z"/>
	<path id="path674" class="st16" d="M252.1,170.3c0,0-32.9-0.5-43.9,6.3c-1.4,0.9-2.6,3.2-3.6,5.3c1-1.3,1.9-2.3,3.4-3.2
		c9.7-5.9,44.2-6.1,44.2-6.1s34.5,0.2,44.2,6.1c1.5,0.9,2.2,2,3.2,3.3c0.1-0.3-1.5-4.4-4.3-6C284.8,170.3,252.1,170.3,252.1,170.3z"
		/>
</g>
<g id="bn" transform="matrix(0.78338919,0,0,0.78338919,0.92902684,1.1976777)">
	<path id="path974" class="st20" d="M25.2,23c-0.2,7-11.8,5.2-11.5,18.1l22.9,0.1C34.4,34.8,46.2,16.1,24.6,9l0,0c0,0-2.4-2.6-6-2.8
		l0.2,3.5l-4.6,4.6c-2.6,3.1-8.7,8.4-7.8,9.6c3.1,5.3,6.3,4.4,6.3,4.4C17.1,23.8,18.7,26.2,25.2,23L25.2,23z"/>
	<path id="path976" class="st21" d="M19.3,14.7c-0.8,0.9-0.7,1.1-0.8,2.1c0.8,0.1,1.5,0.2,2.2,0.1C23.1,15.6,20.8,13.5,19.3,14.7z"
		/>
	<path id="path978" class="st8" d="M9.2,22.2c-0.9,0.4-1,1-1.1,1.5c0.7,0.4,1.9-0.1,2-1.4L9.2,22.2z"/>
	<path id="path980" class="st16" d="M8.2,25.2c0,0,0.7,1.1-1.1-1.6c0.7-2,8.3-9.1,12.4-13.5l-0.2-3.1c0,0,1.1,1.7,1.2,3.5
		C16.2,14.7,8.4,21.2,7.8,23.6C7.8,24.2,8,24.6,8.2,25.2z"/>
	<path id="path982" class="st15" d="M13.3,28.3c2-3.3,8.4-3.2,11.9-5.2c0.3,0.1,0.1,1.4,0.2,1.2c0.8-1.1,2.9-3.3,0.9-6.9
		c0.5,6-13.7,5.6-15.9,10.3C10.2,28.1,12.6,28.5,13.3,28.3z"/>
	<path id="path984" class="st16" d="M25.8,23.8c-1,5.8-9.5,6.1-11,12.6C17.6,30,25.6,30.7,25.8,23.8z"/>
	<path id="path986" class="st15" d="M18.6,6.2c0,0,3.1,0.7,4.9,4c20.5,7.2,7.6,27.9,5.8,31.1l7.2,0C34.6,38,46.1,15.6,24.6,9
		C22.8,7.9,21.8,6.4,18.6,6.2L18.6,6.2z"/>
	<path id="path988" class="st20" d="M25,36.5c0,0-9.1,0-11.7,1.6c-1.7,1.1-2.1,3.7-1.9,6.3h27.2c0.2-2.7-0.2-5.3-1.9-6.3
		C34.1,36.5,25,36.5,25,36.5L25,36.5z"/>
	<path id="path990" class="st16" d="M25,37.1c0,0-8.7-0.1-11.6,1.7c-0.4,0.2-0.7,0.8-1,1.4c0.3-0.3,0.5-0.6,0.9-0.8
		c2.6-1.6,11.7-1.6,11.7-1.6s9.1,0,11.7,1.6c0.4,0.2,0.6,0.5,0.9,0.9c0-0.1-0.4-1.2-1.1-1.6C33.6,37.1,25,37.1,25,37.1L25,37.1z"/>
</g>
<g id="br" transform="matrix(0.84246687,0,0,0.84246687,-1.1177673,-1.4608179)">
	<path id="path1359" class="st22" d="M17.9,20.4c4.9-0.7,9.6-0.6,14.1,0 M14.2,9.7c-1.1,8.8,1.1,10.7,3.7,10.8l-3.3,18.2h20.8
		l-3.3-18.2c2.6-0.1,4.8-2,3.7-10.8l-3.6-0.5l-1.1,3.6L28,12.7l-0.5-3.8h-4.9L22,12.7l-3.1,0.1l-1.1-3.6L14.2,9.7z"/>
	<path id="path1361" class="st15" d="M17.9,20.4c6.8,0,13.1,0.4,14.9,16.6l2.3,0.4l-3.1-16.4C32,20.6,26,19.1,17.9,20.4z"/>
	<path id="path1363" class="st16" d="M14.8,10.2l2.3-0.3c-1.9,0.3-2.3,5.3-2.3,5.3C14.5,15.1,14.6,10.3,14.8,10.2z M25.3,9.5
		c-1.6,0-2.5,2.7-2.5,2.7l0.3-2.7L25.3,9.5z M32.7,9.8l0.9,0.1c-0.8,0.5-1.6,2-1.6,2L32.7,9.8z M18.5,21l2.6-0.3
		c-2.6,0.3-4.9,13.1-4.9,13.1L18.5,21z"/>
	<path id="path1365" class="st15" d="M34,9.4c0.4,6.4-2,10.6-8,10.5l4.8,0.6c7.5,0.3,5.1-10.8,5.1-10.8L34,9.4z"/>
	<path id="path1367" class="st23" d="M25,36.5c0,0-9.1,0-11.7,1.6c-1.7,1.1-2.1,3.7-1.9,6.3h27.2c0.2-2.7-0.2-5.3-1.9-6.3
		C34.1,36.5,25,36.5,25,36.5L25,36.5z"/>
	<path id="path1369" class="st16" d="M25,37.1c0,0-8.7-0.1-11.6,1.7c-0.4,0.2-0.7,0.8-1,1.4c0.3-0.3,0.5-0.6,0.9-0.8
		c2.6-1.6,11.7-1.6,11.7-1.6s9.1,0,11.7,1.6c0.4,0.2,0.6,0.5,0.9,0.9c0-0.1-0.4-1.2-1.1-1.6C33.6,37.1,25,37.1,25,37.1L25,37.1z"/>
</g>
<g id="bp" transform="matrix(0.82029849,0,0,0.82029849,-0.5635331,-0.50702576)">
	<path id="path1131" class="st24" d="M21.5,27.6h7 M19,17.5c0,1.7,0.7,3.4,2,4.6l-3.7,2.1l0.4,3.4h4.3c-0.8,3.6-2.8,7.3-5.1,8.6
		s-5.3,3.1-4.8,8.2h25.7c0.5-5.1-2.5-6.9-4.8-8.2c-2.3-1.3-4.3-5.1-5.1-8.6h4.3l0.4-3.4L29,22.1c1.3-1.2,2-2.9,2-4.6
		c0-3.4-2.6-5.9-6-5.9C21.6,11.6,19,14.1,19,17.5z"/>
	<path id="path1133" class="st15" d="M25,11.5c1.2-0.5,9.5,5.9,0.6,10.8l4.5,2.1l-0.6,3.1h2.7l0.4-3.4L29,22c1.3-1.2,2-2.6,2-4.3
		C30.5,12.3,25,11.5,25,11.5L25,11.5z M22,27.5c4.5,7.9,9.5,10,13.1,10L33,36.2c-2.1-1.5-4.7-4.9-5.1-8.6H22z"/>
	<path id="path1135" class="st16" d="M22,22.2l-1.6,2.3l-2.4,0L22,22.2L22,22.2z M24.3,12.3c-2.5,0.1-5.7,3.2-4.4,6.9l0.2,0.6
		C19.8,16.3,22.2,12.7,24.3,12.3z M17.9,37.6c-4,2.3-5.1,6.1-5.1,6.1c0,0-0.5-4.2,4-6.7s4.8-6.2,5.9-8.9
		C21.9,31.9,21.8,35.3,17.9,37.6z"/>
</g>
</svg>
