<?xml version="1.0" encoding="utf-8"?>
<!-- Generator: Adobe Illustrator 28.2.0, SVG Export Plug-In . SVG Version: 6.00 Build 0)  -->
<svg version="1.1" id="Layer_1" xmlns="http://www.w3.org/2000/svg" xmlns:xlink="http://www.w3.org/1999/xlink" x="0px" y="0px"
	 viewBox="0 0 40 40" style="enable-background:new 0 0 40 40;" xml:space="preserve">
<style type="text/css">
	.st0{fill:#FFFC47;}
	.st1{fill:#42210B;}
	.st2{fill:none;stroke:#FFFC47;stroke-linecap:round;stroke-linejoin:round;}
	.st3{fill:none;stroke:#FFFC47;stroke-miterlimit:10;}
	.st4{fill:#FFFC47;stroke:#42210B;stroke-miterlimit:10;}
</style>
<g id="bk">
	<g>
		<g id="XMLID_00000116957480490726935880000012589696824697576593_">
			<g>
				<path class="st0" d="M36.2,19.9v16.3H3.6V3.6h16.3h16.3V19.9z M35.7,35.7V4.1H4.1v31.6H35.7z"/>
				<path class="st0" d="M35.7,4.1v31.6H4.1V4.1H35.7z M35.2,35.2V20.3l-0.3,0.3L20.6,34.9l-0.3,0.3H35.2z M35.2,19.5V4.6H20.3
					l0.3,0.3l14.2,14.2L35.2,19.5z M34.9,19.9l-15-15l-15,15l15,15L34.9,19.9z M19.2,4.9l0.3-0.3H4.6v14.9L5,19.2L19.2,4.9z
					 M4.6,35.2h14.9l-0.3-0.3L5,20.6l-0.3-0.3V35.2z"/>
				<polygon class="st1" points="35.2,20.3 35.2,35.2 20.3,35.2 20.6,34.9 34.9,20.6 				"/>
				<polygon class="st1" points="35.2,4.6 35.2,19.5 34.9,19.2 20.6,4.9 20.3,4.6 				"/>
				<path class="st0" d="M19.9,4.9l15,15l-15,15l-15-15L19.9,4.9z M34.2,19.9L19.9,5.7L5.7,19.9l14.2,14.2L34.2,19.9z"/>
				<polygon class="st1" points="19.9,5.7 34.2,19.9 19.9,34.1 5.7,19.9 				"/>
				<polygon class="st1" points="19.5,4.6 19.2,4.9 5,19.2 4.6,19.5 4.6,4.6 				"/>
				<polygon class="st1" points="19.5,35.2 4.6,35.2 4.6,20.3 5,20.6 19.2,34.9 				"/>
			</g>
			<g>
			</g>
		</g>
	</g>
	<g>
		
			<rect x="11.3" y="11.3" transform="matrix(0.7071 -0.7071 0.7071 0.7071 -8.2402 19.9093)" class="st1" width="17.1" height="17.1"/>
		<path class="st0" d="M19.9,8.5l11.4,11.4L19.9,31.3L8.5,19.9L19.9,8.5 M19.9,7.1L7.1,19.9l12.8,12.8l12.8-12.8L19.9,7.1L19.9,7.1z
			"/>
	</g>
</g>
<g id="bq">
	<g id="XMLID_00000056413870289945884500000008407997505074292133_">
		<g>
			<path class="st1" d="M36.2,20.1v16.1H20.1C29,36.2,36.2,29,36.2,20.1z"/>
			<path class="st1" d="M36.2,4v16.1C36.2,11.2,29,4,20.1,4H36.2z"/>
			<path class="st1" d="M20.1,4c8.9,0,16,7.2,16,16.1c0,8.9-7.2,16.1-16.1,16.1h0c-8.8,0-16-7.2-16-16v0C4,11.2,11.2,4,20.1,4
				L20.1,4z M34.1,20.1c0-7.7-6.3-14-14-14c-7.7,0-14,6.3-14,14s6.3,14,14,14C27.8,34.1,34.1,27.8,34.1,20.1z"/>
			<path class="st1" d="M20.1,6.1c7.7,0,14,6.3,14,14s-6.3,14-14,14c-7.7,0-14-6.3-14-14S12.4,6.1,20.1,6.1z"/>
			<path class="st1" d="M4,4h16.1C11.2,4,4,11.2,4,20.1V4z"/>
			<path class="st1" d="M20,36.2H4v-16C4,29,11.2,36.2,20,36.2z"/>
		</g>
		<g>
			<path class="st2" d="M20.1,4c8.9,0,16,7.2,16,16.1c0,8.9-7.2,16.1-16.1,16.1"/>
			<path class="st2" d="M4,20.1C4,11.2,11.2,4,20.1,4"/>
			<path class="st2" d="M20,36.2c-8.8,0-16-7.2-16-16"/>
			<line class="st2" x1="20" y1="36.2" x2="20.1" y2="36.2"/>
			<polyline class="st3" points="4,20.1 4,36.2 20,36.2 			"/>
			<line class="st2" x1="4" y1="20.1" x2="4" y2="20.1"/>
			<polyline class="st3" points="20.1,4 4,4 4,20.1 			"/>
			<line class="st2" x1="20.1" y1="4" x2="20.1" y2="4"/>
			<polyline class="st3" points="20.1,36.2 36.2,36.2 36.2,20.1 36.2,4 20.1,4 			"/>
			<path class="st2" d="M20.1,34.1c-7.7,0-14-6.3-14-14s6.3-14,14-14c7.7,0,14,6.3,14,14S27.8,34.1,20.1,34.1z"/>
		</g>
	</g>
</g>
<g id="bb">
	<polygon class="st1" points="29.1,35.7 19.9,26.5 10.7,35.7 4.1,35.7 4.1,29.1 13.3,19.9 4.1,10.7 4.1,4.1 10.7,4.1 19.9,13.3 
		29.1,4.1 35.7,4.1 35.7,10.7 26.5,19.9 35.7,29.1 35.7,35.7 	"/>
	<path class="st0" d="M35.2,4.6v5.9l-8.7,8.7l-0.7,0.7l0.7,0.7l8.7,8.7v5.9h-5.9l-8.7-8.7l-0.7-0.7l-0.7,0.7l-8.7,8.7H4.6v-5.9
		l8.7-8.7l0.7-0.7l-0.7-0.7l-8.7-8.7V4.6h5.9l8.7,8.7l0.7,0.7l0.7-0.7l8.7-8.7H35.2 M36.2,3.6h-7.3l-9,9l-9-9H3.6v7.3l9,9l-9,9v7.3
		h7.3l9-9l9,9h7.3v-7.3l-9-9l9-9V3.6L36.2,3.6z"/>
</g>
<g id="bn">
	<polygon class="st1" points="4.1,35.7 4.1,4.1 35.7,4.1 35.7,19.4 19.4,19.4 19.4,35.7 	"/>
	<path class="st0" d="M35.2,4.6v14.3H19.9h-1v1v15.3H4.6V4.6H35.2 M36.2,3.6H3.6v32.6h16.3V19.9h16.3V3.6L36.2,3.6z"/>
</g>
<g id="br">
	<rect x="4.1" y="4.1" class="st1" width="31.6" height="31.6"/>
	<path class="st0" d="M35.2,4.6v30.6H4.6V4.6H35.2 M36.2,3.6H3.6v32.6h32.6V3.6L36.2,3.6z"/>
</g>
<g id="bp">
	<rect x="11.8" y="11.8" class="st1" width="16.3" height="16.3"/>
	<path class="st0" d="M27.6,12.3v15.3H12.3V12.3H27.6 M28.6,11.3H11.3v17.3h17.3V11.3L28.6,11.3z"/>
</g>
<g id="wk_00000145760446648554012650000014952686790115916200_">
	<g>
		<g>
			<path class="st0" d="M5.2,20.2l15-15l15,15l-15,15L5.2,20.2z M20.2,32.3l12.1-12.2L20.2,8L8,20.2L20.2,32.3z"/>
			<path class="st1" d="M20.2,5.9l14.3,14.3L20.2,34.5L5.9,20.2L20.2,5.9 M20.2,33L33,20.2L20.2,7.3L7.3,20.2L20.2,33 M20.2,4.4
				l-0.7,0.7L5.2,19.4l-0.7,0.7l0.7,0.7l14.3,14.3l0.7,0.7l0.7-0.7l14.3-14.3l0.7-0.7l-0.7-0.7L20.9,5.2L20.2,4.4L20.2,4.4z
				 M8.7,20.2L20.2,8.7l11.4,11.5L20.2,31.6L8.7,20.2L8.7,20.2z"/>
		</g>
		<g>
			<polygon class="st0" points="19.3,36 20.5,34.8 35.9,19.3 35.9,36 			"/>
			<path class="st1" d="M35.4,20.5v15H20.5l0.3-0.3l14.2-14.3L35.4,20.5 M36.4,18.1l-1.7,1.7l-0.3,0.3L20.2,34.5l-0.3,0.3l-1.8,1.7
				h2.5h14.9h1v-1v-15V18.1L36.4,18.1z"/>
		</g>
		<g>
			<polygon class="st0" points="34.8,19.8 19.3,4.3 35.9,4.3 35.9,21 			"/>
			<path class="st1" d="M35.4,4.8v15l-0.3-0.3L20.9,5.2l-0.3-0.3H35.4 M36.4,3.8h-1H20.5h-2.4l1.7,1.7l0.3,0.3l14.2,14.3l0.4,0.3
				l1.7,1.7v-2.4v-15V3.8L36.4,3.8z"/>
		</g>
		<g>
			<polygon class="st0" points="8,20.2 20.2,8 32.3,20.2 20.2,32.3 			"/>
			<path class="st1" d="M20.2,8.7l11.4,11.5L20.2,31.6L8.7,20.2L20.2,8.7 M20.2,7.3L19.4,8L8,19.4l-0.7,0.7L8,20.9l11.4,11.5
				l0.7,0.7l0.7-0.7l11.4-11.5l0.7-0.7l-0.7-0.7L20.9,8L20.2,7.3L20.2,7.3z"/>
		</g>
		<g>
			<polygon class="st0" points="4.4,4.3 21,4.3 4.4,21 			"/>
			<path class="st1" d="M19.8,4.8l-0.3,0.3L5.2,19.5l-0.3,0.3v-15H19.8 M22.2,3.8h-2.4H4.9h-1v1v15v2.4l1.7-1.7l0.3-0.3L20.2,5.9
				l0.3-0.3L22.2,3.8L22.2,3.8z"/>
		</g>
		<g>
			<polygon class="st0" points="4.4,36 4.4,19.3 5.6,20.5 19.8,34.8 21,36 			"/>
			<path class="st1" d="M4.9,20.5l0.3,0.3l14.3,14.3l0.3,0.3H4.9V20.5 M3.9,18.1v2.5v15v1h1h14.9h2.5l-1.8-1.7l-0.3-0.3L5.9,20.2
				l-0.3-0.3L3.9,18.1L3.9,18.1z"/>
		</g>
	</g>
</g>
<g id="wq_00000016766943917873533020000012250975994491098757_">
	<g id="wq">
		<path class="st4" d="M19.9,35.9h15.8V20.2C35.8,28.9,28.7,35.9,19.9,35.9z"/>
		<path class="st4" d="M20,4.4c8.7,0,15.8,7.1,15.8,15.8V4.4H20z"/>
		<path class="st4" d="M20,4.4L20,4.4c-8.8,0-15.9,7.1-15.9,15.8v0c0,8.7,7.1,15.7,15.8,15.7h0c8.7,0,15.8-7.1,15.8-15.8
			C35.8,11.5,28.7,4.4,20,4.4z M19.9,33.9c-7.6,0-13.8-6.2-13.8-13.7S12.4,6.4,19.9,6.4s13.8,6.2,13.8,13.7S27.5,33.9,19.9,33.9z"/>
		<ellipse class="st4" cx="19.9" cy="20.2" rx="13.8" ry="13.7"/>
		<path class="st4" d="M19.9,4.4H4.1v15.8C4.1,11.5,11.2,4.4,19.9,4.4z"/>
		<path class="st4" d="M4.1,20.2v15.7h15.8C11.2,35.9,4.1,28.9,4.1,20.2z"/>
	</g>
</g>
<g id="wb">
	<g>
		<polygon class="st0" points="29.3,35.9 20.1,26.7 10.9,35.9 4.3,35.9 4.3,29.3 13.5,20.1 4.3,10.9 4.3,4.3 10.9,4.3 20.1,13.5 
			29.3,4.3 35.9,4.3 35.9,10.9 26.7,20.1 35.9,29.3 35.9,35.9 		"/>
		<path class="st1" d="M35.4,4.8v5.9l-8.7,8.7L26,20.1l0.7,0.7l8.7,8.7v5.9h-5.9l-8.7-8.7L20.1,26l-0.7,0.7l-8.7,8.7H4.8v-5.9
			l8.7-8.7l0.7-0.7l-0.7-0.7l-8.7-8.7V4.8h5.9l8.7,8.7l0.7,0.7l0.7-0.7l8.7-8.7H35.4 M36.4,3.8h-7.3l-9,9l-9-9H3.8v7.3l9,9l-9,9v7.3
			h7.3l9-9l9,9h7.3v-7.3l-9-9l9-9V3.8L36.4,3.8z"/>
	</g>
</g>
<g id="wn">
	<g>
		<polygon class="st0" points="4.3,35.9 4.3,4.3 35.9,4.3 35.9,19.6 19.6,19.6 19.6,35.9 		"/>
		<path class="st1" d="M35.4,4.8v14.3H20.1h-1v1v15.3H4.8V4.8H35.4 M36.4,3.8H3.8v32.6h16.3V20.1h16.3V3.8L36.4,3.8z"/>
	</g>
</g>
<g id="wr">
	<rect x="4.3" y="4.3" class="st0" width="31.6" height="31.6"/>
	<path class="st1" d="M35.4,4.8v30.6H4.8V4.8H35.4 M36.4,3.8H3.8v32.6h32.6V3.8L36.4,3.8z"/>
</g>
<g id="wp">
	<rect x="12.1" y="12" class="st0" width="16.3" height="16.3"/>
	<path class="st1" d="M27.9,12.5v15.3H12.6V12.5H27.9 M28.9,11.5H11.6v17.3h17.3V11.5L28.9,11.5z"/>
</g>
</svg>
